<svg xmlns="http://www.w3.org/2000/svg" width="21.243" height="24.28" viewBox="0 0 21.243 24.28">
  <path id="bell-regular" d="M10.644,0A1.516,1.516,0,0,0,9.126,1.518v.849a7.21,7.21,0,0,0-6.07,7.118v1.584A9.493,9.493,0,0,1,.979,16.992l-.707.887a1.138,1.138,0,0,0,.887,1.849H20.129a1.138,1.138,0,0,0,.887-1.849L20.309,17a9.516,9.516,0,0,1-2.077-5.928V9.485a7.21,7.21,0,0,0-6.07-7.118V1.518A1.516,1.516,0,0,0,10.644,0Zm3.035,21.245H7.609a3.035,3.035,0,1,0,6.07,0Z" transform="translate(-0.022)" fill="#fff" opacity="0.8"/>
</svg>
