<svg xmlns="http://www.w3.org/2000/svg" width="179.136" height="159.349" viewBox="0 0 179.136 159.349">
  <g id="Group_213" data-name="Group 213" transform="translate(-201.252 -202.937)">
    <path id="Path_7" data-name="Path 7" d="M322.6,244.279a7.194,7.194,0,0,0-1.857-3.187l-1.361-1.048a7.286,7.286,0,0,0-5.486-11.809,6.534,6.534,0,0,0-6.068,3.514,6.6,6.6,0,0,0-6.711-5.258,6.833,6.833,0,0,0-6.969,7.262,7.577,7.577,0,0,0-2.041-.289,7.143,7.143,0,0,0-6.439,10.092,5.563,5.563,0,0,0-1.7-.218l-1.922.258a7.215,7.215,0,0,0-3.187,1.857l-1.129,1.459a7.19,7.19,0,0,0-.986,3.643v.292a5.441,5.441,0,0,0,.622,2.782c0,.02.02.037.031.061a7.142,7.142,0,0,0-3.306-.769,6.833,6.833,0,0,0-6.966,7.3,5.385,5.385,0,0,0-1.578-.864,7.425,7.425,0,0,0-7.888,1.493l-1.129,1.459a7.167,7.167,0,0,0-.959,3.238l-.779-.6a7.173,7.173,0,0,0-3.643-.986h-.582a7.418,7.418,0,0,0-7.221,7.221l.259,1.918c.02.075.065.133.085.2a6.69,6.69,0,0,0-4.741-1.792,7.048,7.048,0,0,0-6.7,9.214,6.657,6.657,0,0,0-4.911-1.956,7.007,7.007,0,0,0-6.8,8.762,7.52,7.52,0,0,0-2.184-.34,7.231,7.231,0,0,0-6.085,10.884,8.072,8.072,0,0,0-1.466-.146c-8.082,0-9.136,10.915-3.15,13.762l-1.092.146a7.235,7.235,0,0,0-3.187,1.857l-1.129,1.459a7.176,7.176,0,0,0-.986,3.646v.289a7.418,7.418,0,0,0,7.221,7.218l.31-.041c-5.272,3.282-4.044,13.4,3.741,13.4a6.68,6.68,0,0,0,4.762-1.806,6.575,6.575,0,0,0,6.575,4.711,6.9,6.9,0,0,0,6.911-8.017,7.247,7.247,0,0,0,3.432-.082l1.724-.728a7.245,7.245,0,0,0,2.592-2.588l.582-1.163a5.363,5.363,0,0,0,.857-2.684,5.465,5.465,0,0,0-.129-2.878,5.6,5.6,0,0,0-.5-1.333,7.411,7.411,0,0,0,3.629-9.01,7.554,7.554,0,0,0,2.105.313,6.857,6.857,0,0,0,6.949-7.558,7.57,7.57,0,0,0,2.041.3,6.738,6.738,0,0,0,6.925-6.6,6.932,6.932,0,0,0,3.823,1.078,6.758,6.758,0,0,0,6.935-6.758,6.9,6.9,0,0,0,4.1,1.241,6.762,6.762,0,0,0,6.939-6.782,9.233,9.233,0,0,0,4.082,1.265l1.922-.259a7.209,7.209,0,0,0,3.187-1.857l1.129-1.459a7.177,7.177,0,0,0,.986-3.646v-.1a7.187,7.187,0,0,0,3.524.929h.289a7.418,7.418,0,0,0,7.221-7.221l-.051-.367c.129,0,.245.034.381.034a7.258,7.258,0,0,0,5.9-11.224c.122-.027.245-.041.371-.075l1.724-.728a7.235,7.235,0,0,0,2.592-2.592l.582-1.16a5.364,5.364,0,0,0,.857-2.684,6.313,6.313,0,0,0-1.075-4.844,7.411,7.411,0,0,0,6.432-7.143Zm-14.5,3.837a7.184,7.184,0,0,0,.973,2.041c-.194.037-.384.065-.578.119l-1.724.728a7.241,7.241,0,0,0-2.592,2.588l-.582,1.163a5.38,5.38,0,0,0-.857,2.684,6.334,6.334,0,0,0,1.139,4.932,6.925,6.925,0,0,0-5.354,7.432c-.2,0-.4-.037-.6-.041h-.289a7.4,7.4,0,0,0-7.208,7.078,5.585,5.585,0,0,0-.758-.34,5.442,5.442,0,0,0-2.782-.622l-1.918.258a7.235,7.235,0,0,0-3.187,1.857l-1.129,1.459a7.187,7.187,0,0,0-.966,3.32,6.935,6.935,0,0,0-3.837-1.085,6.758,6.758,0,0,0-6.939,6.758,6.891,6.891,0,0,0-4.082-1.242,6.738,6.738,0,0,0-6.925,6.6,6.952,6.952,0,0,0-3.823-1.078,6.854,6.854,0,0,0-6.945,7.558,7.583,7.583,0,0,0-2.041-.3,7.1,7.1,0,0,0-6.605,9.609,7.554,7.554,0,0,0-2.105-.316,7.187,7.187,0,0,0-6.265,10.5l-.864.367a7.235,7.235,0,0,0-2.592,2.592l-.582,1.16a8.666,8.666,0,0,0-.939,4.391,7.932,7.932,0,0,0-1.248-.126,6.688,6.688,0,0,0-4.762,1.806,6.571,6.571,0,0,0-6.575-4.707c-.122,0-.224.031-.34.034a7.3,7.3,0,0,0,1.384-1.068l1.129-1.459a7.21,7.21,0,0,0,.986-3.643v-.289a6.908,6.908,0,0,0-4.18-6.462A7.262,7.262,0,0,0,216.9,301.52a7.9,7.9,0,0,0,1.466.146,7,7,0,0,0,6.8-8.762,7.522,7.522,0,0,0,2.187.34,7.047,7.047,0,0,0,6.7-9.214,6.657,6.657,0,0,0,4.911,1.956,7.1,7.1,0,0,0,6.612-9.588l1.36,1.054a7.191,7.191,0,0,0,3.646.986h.582a7.364,7.364,0,0,0,7.177-6.735,7.4,7.4,0,0,0,9.837-.316l1.129-1.459a7.179,7.179,0,0,0,.983-3.6,6.949,6.949,0,0,0,3.82,1.075,7.163,7.163,0,0,0,6.367-10.258,8.2,8.2,0,0,0,3.507.966l1.918-.258A7.214,7.214,0,0,0,289.1,256l1.129-1.459a7.19,7.19,0,0,0,.986-3.643V250.6a5.442,5.442,0,0,0-.622-2.782V247.8a8.1,8.1,0,0,0,1.544.153,6.833,6.833,0,0,0,6.969-7.258,7.647,7.647,0,0,0,2.041.289,6.537,6.537,0,0,0,6.051-3.561,6.912,6.912,0,0,0,2.544,3.946,5.353,5.353,0,0,0-1.269,2.041,5.443,5.443,0,0,0-.622,2.782Z" transform="translate(0 19.714)" fill="#5a6670"/>
    <path id="Path_8" data-name="Path 8" d="M336.429,238.443a7.6,7.6,0,0,0-.034-12.5c4.354-3.741,2.867-12.843-4.527-12.843a7.182,7.182,0,0,0-3.214.724,7.224,7.224,0,0,0-6.078-10.884,6.721,6.721,0,0,0-6.911,6.425,6.8,6.8,0,0,0-4.422-1.49c-7.18,0-8.8,8.605-4.874,12.524-.122,0-.228-.034-.34-.034-7.823,0-9.041,10.184-3.707,13.432a7.483,7.483,0,0,0-2.143,12.585c-.136.058-.282.082-.415.153a7.415,7.415,0,0,0-4.439,6.6l.258,1.918a7.235,7.235,0,0,0,1.857,3.187l.248.19c-.075.041-.15.071-.224.112l-.582.293a6.952,6.952,0,0,0-3.446,7.194,5.365,5.365,0,0,0,.857,2.684l1.119,1.452a7.524,7.524,0,0,0-3.153,11.224,7.177,7.177,0,0,0-5.993,10.153c-.1,0-.177-.027-.279-.027a7.071,7.071,0,0,0-6.656,9.411,7.852,7.852,0,0,0-1.184-.119,6.837,6.837,0,0,0-6.966,7.32c-.2,0-.378-.058-.585-.058a6.738,6.738,0,0,0-6.922,6.6,7.742,7.742,0,0,0-1.789-.214,6.9,6.9,0,0,0-6.911,8.007c-.177.037-.34.041-.527.1a7.306,7.306,0,0,0-4.313,3.32,7.082,7.082,0,0,0-.728,5.565l.871,2.323a8.068,8.068,0,0,0,3.32,4.313c.058.037.126.051.184.088a6.85,6.85,0,0,0,6.945,7.578c.126,0,.228-.031.34-.034a7.411,7.411,0,0,0,7.2,7.007l1.918-.259a7.193,7.193,0,0,0,3.187-1.857l1.129-1.463a7.2,7.2,0,0,0,.83-2.221,5.486,5.486,0,0,0,.9,1.068l1.459,1.129a7.191,7.191,0,0,0,3.643.986l1.918-.259a7.213,7.213,0,0,0,3.187-1.857l.289-.289a8.051,8.051,0,0,0,2.116-5.1c0-.078-.02-.146-.02-.225a5.441,5.441,0,0,0,2.381.476l1.922-.258a7.212,7.212,0,0,0,3.187-1.857l1.129-1.463a7.174,7.174,0,0,0,.986-3.643v-.289a5.478,5.478,0,0,0-.31-1.932,7.876,7.876,0,0,0,1.51.15,7.119,7.119,0,0,0,6.571-9.738,8.071,8.071,0,0,0,1.561.153,7.071,7.071,0,0,0,6.656-9.408l1.071-.146a7.214,7.214,0,0,0,3.187-1.857l1.129-1.463a7.208,7.208,0,0,0,.986-3.643v-.289a8.051,8.051,0,0,0-2.116-5.1,5.575,5.575,0,0,0-.571-.48,7.33,7.33,0,0,0,3.013.609c7.551,0,8.976-9.524,4.255-13.109.136,0,.255.037.395.037a7.313,7.313,0,0,0,5.337-12.037,7.507,7.507,0,0,0,3.024-11.459,7.442,7.442,0,0,0-.252-13.442C341.435,251.657,342.3,241.184,336.429,238.443Zm-10.592,25.17a7.568,7.568,0,0,0-2.52,11.459,7.527,7.527,0,0,0-1.8,12.714c-.136,0-.255-.037-.395-.037-7.483,0-8.942,9.384-4.347,13.02-.146-.061-.272-.15-.422-.2a5.442,5.442,0,0,0-2.782-.622l-1.922.258a7.231,7.231,0,0,0-3.187,1.857l-1.129,1.463a7.191,7.191,0,0,0-.987,3.643v.289a5.444,5.444,0,0,0,.384,2.136,7.18,7.18,0,0,0-5.544,9.677,7.9,7.9,0,0,0-1.558-.157,7.051,7.051,0,0,0-6.7,9.235,5.532,5.532,0,0,0-1.724-.231l-1.918.259a7.194,7.194,0,0,0-3.187,1.857l-1.129,1.463a7.183,7.183,0,0,0-.986,3.643v.456a7.174,7.174,0,0,0-2.381-.418l-1.918.259a7.215,7.215,0,0,0-3.187,1.857l-.289.289a5.408,5.408,0,0,0-1.493,2.323,5.341,5.341,0,0,0-.425,1.153,5.6,5.6,0,0,0-.942-1.153,8.04,8.04,0,0,0-5.1-2.116l-.612.082a7.065,7.065,0,0,0-3.224-5.748,5.277,5.277,0,0,0-.238-2.381q-.235-.633-.473-1.262a6.8,6.8,0,0,0,5.082-6.367,7.822,7.822,0,0,0,1.789.211,6.837,6.837,0,0,0,6.966-7.32c.2,0,.378.058.585.058a7.071,7.071,0,0,0,6.656-9.411,7.811,7.811,0,0,0,1.184.119,7.143,7.143,0,0,0,6.4-10.2c.1,0,.18.027.282.027a7.275,7.275,0,0,0,5.609-11.646,7.333,7.333,0,0,0,4.7-12.3,7.317,7.317,0,0,0,1.187-.541l.581-.293a6.952,6.952,0,0,0,3.446-7.194,5.36,5.36,0,0,0-.857-2.684l-1.129-1.459c-.054-.054-.122-.085-.177-.139a7.422,7.422,0,0,0,4.02-6.4l-.258-1.918a7.234,7.234,0,0,0-1.857-3.187l-.772-.6a7.483,7.483,0,0,0,1.15-12.976,7.5,7.5,0,0,0,2.585-12.18c.122,0,.228.034.34.034a6.718,6.718,0,0,0,6.911-6.425,6.8,6.8,0,0,0,4.422,1.49,7.2,7.2,0,0,0,3.2-.711,7.656,7.656,0,0,0,2.456,9.908,7.6,7.6,0,0,0,1.36,12.2,7.483,7.483,0,0,0,1.156,12.986,7.316,7.316,0,0,0-4.881,11.843Z" transform="translate(40.117 0)" fill="#5a6670"/>
    <path id="Path_9" data-name="Path 9" d="M304.956,233.062c-5.041-2.949-13.605-1.633-16.214,4.252-8.53,19.282-30.683,25.408-47.717,34.938-16.126,9.024-42.805,30.129-32.578,51.54,6.081,12.721,24.006,3.4,21.483-8.915.966-6.184,8.636-12.585,13.007-15.853a152.608,152.608,0,0,1,24.353-13.568c16.7-8.2,34.068-18.435,41.914-36.18A12.245,12.245,0,0,0,304.956,233.062Z" transform="translate(4.121 23.952)" fill="#5a6670"/>
    <path id="Path_10" data-name="Path 10" d="M302.764,219.728c-.867,36.268-7.922,78.38-42.339,98.039-13.241,7.565-1.316,28.051,11.962,20.466,42.064-24.027,53-73.635,54.081-118.5C326.828,204.47,303.128,204.477,302.764,219.728Z" transform="translate(44.72 4.48)" fill="#5a6670"/>
  </g>
</svg>
