<svg xmlns="http://www.w3.org/2000/svg" width="40" height="40" viewBox="0 0 40 40">
  <path id="list_alt_FILL0_wght400_GRAD0_opsz24" d="M131.111-808.889a2.15,2.15,0,0,0,1.583-.639,2.15,2.15,0,0,0,.639-1.583,2.15,2.15,0,0,0-.639-1.583,2.15,2.15,0,0,0-1.583-.639,2.15,2.15,0,0,0-1.583.639,2.151,2.151,0,0,0-.639,1.583,2.15,2.15,0,0,0,.639,1.583A2.15,2.15,0,0,0,131.111-808.889Zm0-8.889a2.15,2.15,0,0,0,1.583-.639,2.15,2.15,0,0,0,.639-1.583,2.15,2.15,0,0,0-.639-1.583,2.15,2.15,0,0,0-1.583-.639,2.15,2.15,0,0,0-1.583.639,2.15,2.15,0,0,0-.639,1.583,2.15,2.15,0,0,0,.639,1.583A2.15,2.15,0,0,0,131.111-817.778Zm0-8.889a2.15,2.15,0,0,0,1.583-.639,2.15,2.15,0,0,0,.639-1.583,2.15,2.15,0,0,0-.639-1.583,2.15,2.15,0,0,0-1.583-.639,2.15,2.15,0,0,0-1.583.639,2.151,2.151,0,0,0-.639,1.583,2.15,2.15,0,0,0,.639,1.583A2.15,2.15,0,0,0,131.111-826.667ZM140-808.889h8.889a2.15,2.15,0,0,0,1.583-.639,2.15,2.15,0,0,0,.639-1.583,2.15,2.15,0,0,0-.639-1.583,2.15,2.15,0,0,0-1.583-.639H140a2.15,2.15,0,0,0-1.583.639,2.151,2.151,0,0,0-.639,1.583,2.15,2.15,0,0,0,.639,1.583A2.15,2.15,0,0,0,140-808.889Zm0-8.889h8.889a2.15,2.15,0,0,0,1.583-.639,2.15,2.15,0,0,0,.639-1.583,2.15,2.15,0,0,0-.639-1.583,2.15,2.15,0,0,0-1.583-.639H140a2.15,2.15,0,0,0-1.583.639,2.15,2.15,0,0,0-.639,1.583,2.15,2.15,0,0,0,.639,1.583A2.15,2.15,0,0,0,140-817.778Zm0-8.889h8.889a2.15,2.15,0,0,0,1.583-.639,2.15,2.15,0,0,0,.639-1.583,2.15,2.15,0,0,0-.639-1.583,2.15,2.15,0,0,0-1.583-.639H140a2.15,2.15,0,0,0-1.583.639,2.151,2.151,0,0,0-.639,1.583,2.15,2.15,0,0,0,.639,1.583A2.15,2.15,0,0,0,140-826.667ZM124.444-800a4.28,4.28,0,0,1-3.139-1.305A4.28,4.28,0,0,1,120-804.444v-31.111a4.28,4.28,0,0,1,1.306-3.139A4.28,4.28,0,0,1,124.444-840h31.111a4.28,4.28,0,0,1,3.139,1.306A4.28,4.28,0,0,1,160-835.556v31.111a4.28,4.28,0,0,1-1.306,3.139A4.28,4.28,0,0,1,155.556-800Zm0-4.444h31.111v-31.111H124.444Zm0-31.111v0Z" transform="translate(-120 840)" fill="#45aeae"/>
</svg>
