<svg xmlns="http://www.w3.org/2000/svg" width="20" height="20" viewBox="0 0 20 20">
  <path id="list_alt_FILL0_wght400_GRAD0_opsz24" d="M125.556-824.444a1.075,1.075,0,0,0,.792-.319,1.075,1.075,0,0,0,.319-.792,1.075,1.075,0,0,0-.319-.792,1.075,1.075,0,0,0-.792-.319,1.075,1.075,0,0,0-.792.319,1.075,1.075,0,0,0-.319.792,1.075,1.075,0,0,0,.319.792A1.075,1.075,0,0,0,125.556-824.444Zm0-4.444a1.075,1.075,0,0,0,.792-.319,1.075,1.075,0,0,0,.319-.792,1.075,1.075,0,0,0-.319-.792,1.075,1.075,0,0,0-.792-.319,1.075,1.075,0,0,0-.792.319,1.075,1.075,0,0,0-.319.792,1.075,1.075,0,0,0,.319.792A1.075,1.075,0,0,0,125.556-828.889Zm0-4.444a1.075,1.075,0,0,0,.792-.319,1.075,1.075,0,0,0,.319-.792,1.075,1.075,0,0,0-.319-.792,1.075,1.075,0,0,0-.792-.319,1.075,1.075,0,0,0-.792.319,1.075,1.075,0,0,0-.319.792,1.075,1.075,0,0,0,.319.792A1.075,1.075,0,0,0,125.556-833.333ZM130-824.444h4.444a1.075,1.075,0,0,0,.792-.319,1.075,1.075,0,0,0,.319-.792,1.075,1.075,0,0,0-.319-.792,1.075,1.075,0,0,0-.792-.319H130a1.075,1.075,0,0,0-.792.319,1.075,1.075,0,0,0-.319.792,1.075,1.075,0,0,0,.319.792A1.075,1.075,0,0,0,130-824.444Zm0-4.444h4.444a1.075,1.075,0,0,0,.792-.319,1.075,1.075,0,0,0,.319-.792,1.075,1.075,0,0,0-.319-.792,1.075,1.075,0,0,0-.792-.319H130a1.075,1.075,0,0,0-.792.319,1.075,1.075,0,0,0-.319.792,1.075,1.075,0,0,0,.319.792A1.075,1.075,0,0,0,130-828.889Zm0-4.444h4.444a1.075,1.075,0,0,0,.792-.319,1.075,1.075,0,0,0,.319-.792,1.075,1.075,0,0,0-.319-.792,1.075,1.075,0,0,0-.792-.319H130a1.075,1.075,0,0,0-.792.319,1.075,1.075,0,0,0-.319.792,1.075,1.075,0,0,0,.319.792A1.075,1.075,0,0,0,130-833.333ZM122.222-820a2.14,2.14,0,0,1-1.569-.653,2.14,2.14,0,0,1-.653-1.569v-15.556a2.14,2.14,0,0,1,.653-1.569,2.14,2.14,0,0,1,1.569-.653h15.556a2.14,2.14,0,0,1,1.569.653,2.14,2.14,0,0,1,.653,1.569v15.556a2.14,2.14,0,0,1-.653,1.569,2.14,2.14,0,0,1-1.569.653Zm0-2.222h15.556v-15.556H122.222Zm0-15.556v0Z" transform="translate(-120 840)" fill="#45aeae"/>
</svg>
