<?xml version="1.0" encoding="UTF-8"?>
<svg xmlns="http://www.w3.org/2000/svg" xmlns:xlink="http://www.w3.org/1999/xlink" width="30px" height="30px" viewBox="0 0 30 30" version="1.1">
<g id="surface1">
<path style=" stroke:none;fill-rule:nonzero;fill:rgb(27.058824%,68.235294%,68.235294%);fill-opacity:1;" d="M 15.179688 15.050781 C 17.261719 15.050781 18.953125 13.359375 18.953125 11.277344 C 18.953125 9.191406 17.265625 7.5 15.179688 7.5 C 13.09375 7.5 11.402344 9.191406 11.402344 11.273438 C 11.402344 13.359375 13.09375 15.050781 15.179688 15.050781 Z M 13.832031 16.464844 C 10.925781 16.464844 8.570312 18.820312 8.570312 21.726562 C 8.570312 22.210938 8.964844 22.601562 9.449219 22.601562 L 20.910156 22.601562 C 21.394531 22.601562 21.785156 22.210938 21.785156 21.726562 C 21.785156 18.820312 19.429688 16.464844 16.527344 16.464844 Z M 13.832031 16.464844 "/>
<path style="fill:none;stroke-width:2;stroke-linecap:butt;stroke-linejoin:miter;stroke:rgb(27.058824%,68.235294%,68.235294%);stroke-opacity:1;stroke-miterlimit:4;" d="M 83.004687 42 C 83.004687 64.640625 64.640625 83.004687 42 83.004687 C 19.359375 83.004687 0.995312 64.640625 0.995312 42 C 0.995312 19.359375 19.359375 0.995312 42 0.995312 C 64.640625 0.995312 83.004687 19.359375 83.004687 42 Z M 83.004687 42 " transform="matrix(0.357143,0,0,0.357143,0,0)"/>
</g>
</svg>
