<svg xmlns="http://www.w3.org/2000/svg" width="12" height="12" viewBox="0 0 12 12">
  <path id="history_FILL1_wght400_GRAD0_opsz24" d="M126-828a5.835,5.835,0,0,1-3.717-1.275,5.79,5.79,0,0,1-2.1-3.258.494.494,0,0,1,.1-.458.649.649,0,0,1,.45-.242.724.724,0,0,1,.483.1.693.693,0,0,1,.3.4,4.437,4.437,0,0,0,1.65,2.45,4.562,4.562,0,0,0,2.833.95,4.5,4.5,0,0,0,3.308-1.358A4.5,4.5,0,0,0,130.667-834a4.5,4.5,0,0,0-1.358-3.308A4.5,4.5,0,0,0,126-838.667a4.5,4.5,0,0,0-2.15.533,4.955,4.955,0,0,0-1.683,1.467h1.167a.645.645,0,0,1,.475.192A.645.645,0,0,1,124-836a.645.645,0,0,1-.192.475.645.645,0,0,1-.475.192h-2.667a.645.645,0,0,1-.475-.192A.645.645,0,0,1,120-836v-2.667a.645.645,0,0,1,.192-.475.645.645,0,0,1,.475-.192.645.645,0,0,1,.475.192.645.645,0,0,1,.192.475v.9a5.822,5.822,0,0,1,2.075-1.65A5.955,5.955,0,0,1,126-840a5.8,5.8,0,0,1,2.342.475,6.1,6.1,0,0,1,1.9,1.283,6.1,6.1,0,0,1,1.283,1.9A5.805,5.805,0,0,1,132-834a5.8,5.8,0,0,1-.475,2.342,6.1,6.1,0,0,1-1.283,1.9,6.1,6.1,0,0,1-1.9,1.283A5.805,5.805,0,0,1,126-828Zm.667-6.267,1.667,1.667a.632.632,0,0,1,.183.467.632.632,0,0,1-.183.467.632.632,0,0,1-.467.183.632.632,0,0,1-.467-.183l-1.867-1.867a.666.666,0,0,1-.15-.225.69.69,0,0,1-.05-.258v-2.65a.645.645,0,0,1,.192-.475.645.645,0,0,1,.475-.192.645.645,0,0,1,.475.192.645.645,0,0,1,.192.475Z" transform="translate(-120 840)"/>
</svg>
