<svg xmlns="http://www.w3.org/2000/svg" width="16.8" height="16.8" viewBox="0 0 16.8 16.8">
  <path id="list_alt_FILL0_wght400_GRAD0_opsz24" d="M124.667-826.934a.9.9,0,0,0,.665-.268.9.9,0,0,0,.268-.665.9.9,0,0,0-.268-.665.9.9,0,0,0-.665-.268.9.9,0,0,0-.665.268.9.9,0,0,0-.268.665.9.9,0,0,0,.268.665A.9.9,0,0,0,124.667-826.934Zm0-3.733a.9.9,0,0,0,.665-.268.9.9,0,0,0,.268-.665.9.9,0,0,0-.268-.665.9.9,0,0,0-.665-.268.9.9,0,0,0-.665.268.9.9,0,0,0-.268.665.9.9,0,0,0,.268.665A.9.9,0,0,0,124.667-830.667Zm0-3.733a.9.9,0,0,0,.665-.268.9.9,0,0,0,.268-.665.9.9,0,0,0-.268-.665.9.9,0,0,0-.665-.268A.9.9,0,0,0,124-836a.9.9,0,0,0-.268.665.9.9,0,0,0,.268.665A.9.9,0,0,0,124.667-834.4Zm3.733,7.467h3.733a.9.9,0,0,0,.665-.268.9.9,0,0,0,.268-.665.9.9,0,0,0-.268-.665.9.9,0,0,0-.665-.268H128.4a.9.9,0,0,0-.665.268.9.9,0,0,0-.268.665.9.9,0,0,0,.268.665A.9.9,0,0,0,128.4-826.934Zm0-3.733h3.733a.9.9,0,0,0,.665-.268.9.9,0,0,0,.268-.665.9.9,0,0,0-.268-.665.9.9,0,0,0-.665-.268H128.4a.9.9,0,0,0-.665.268.9.9,0,0,0-.268.665.9.9,0,0,0,.268.665A.9.9,0,0,0,128.4-830.667Zm0-3.733h3.733a.9.9,0,0,0,.665-.268.9.9,0,0,0,.268-.665A.9.9,0,0,0,132.8-836a.9.9,0,0,0-.665-.268H128.4a.9.9,0,0,0-.665.268.9.9,0,0,0-.268.665.9.9,0,0,0,.268.665A.9.9,0,0,0,128.4-834.4Zm-6.533,11.2a1.8,1.8,0,0,1-1.318-.548,1.8,1.8,0,0,1-.548-1.318v-13.067a1.8,1.8,0,0,1,.548-1.318,1.8,1.8,0,0,1,1.318-.548h13.066a1.8,1.8,0,0,1,1.318.548,1.8,1.8,0,0,1,.548,1.318v13.067a1.8,1.8,0,0,1-.548,1.318,1.8,1.8,0,0,1-1.318.548Zm0-1.867h13.066v-13.067H121.867Zm0-13.067v0Z" transform="translate(-120 840)" fill="#5a6670"/>
</svg>
